<svg width="739" height="558" viewBox="0 0 739 558" fill="none" xmlns="http://www.w3.org/2000/svg">
<g clip-path="url(#clip0_107_30)">
<path d="M304.284 386.44C304.284 405.69 289.336 421.294 270.896 421.294C252.456 421.294 237.508 405.69 237.508 386.44C237.508 386.004 237.515 385.571 237.533 385.138C237.871 365.892 253.096 350.583 271.533 350.942C289.969 351.301 304.634 367.195 304.29 386.44H304.284Z" fill="#1CBFC3"/>
<path d="M259.139 401.919L249.522 389.097L251.8 387.388L259.634 397.834L290.478 372.601L292.282 374.805L259.139 401.919Z" fill="white"/>
<path d="M738.22 555.747H0V557.747H738.22V555.747Z" fill="#E6E6E6"/>
<path d="M486.058 195.957C486.749 196.272 487.413 196.643 488.045 197.065L551.199 170.111L553.452 153.475L578.687 153.32L577.196 191.478L493.839 213.525C493.663 214.104 493.453 214.671 493.208 215.225C492.003 217.796 490.065 219.954 487.637 221.428C485.209 222.902 482.4 223.625 479.562 223.507C476.725 223.39 473.985 222.436 471.688 220.767C469.39 219.097 467.637 216.786 466.649 214.124C465.661 211.461 465.481 208.566 466.133 205.802C466.785 203.037 468.238 200.527 470.312 198.587C472.386 196.646 474.986 195.362 477.788 194.894C480.589 194.427 483.466 194.797 486.057 195.96L486.058 195.957Z" fill="#A0616A"/>
<path d="M587.864 541.718H570.601L562.389 475.134H587.866L587.864 541.718Z" fill="#A0616A"/>
<path d="M558.271 536.786H591.563V557.741H537.309C537.309 552.181 539.518 546.85 543.449 542.918C547.38 538.987 552.712 536.779 558.271 536.779V536.786Z" fill="#2F2E41"/>
<path d="M655 536.84L637.822 538.53L623.122 473.072L648.477 470.581L655 536.84Z" fill="#A0616A"/>
<path d="M625.056 534.836L658.182 531.573L660.236 552.43L606.255 557.747C605.71 552.216 607.385 546.695 610.91 542.398C614.436 538.102 619.524 535.381 625.055 534.836H625.056Z" fill="#2F2E41"/>
<path d="M592.669 82.8508C611.769 82.8508 627.252 67.3674 627.252 48.2678C627.252 29.1681 611.769 13.6848 592.669 13.6848C573.569 13.6848 558.086 29.1681 558.086 48.2678C558.086 67.3674 573.569 82.8508 592.669 82.8508Z" fill="#A0616A"/>
<path d="M566.743 528.252C565.259 528.255 563.822 527.733 562.685 526.78C561.547 525.827 560.783 524.503 560.526 523.042C551.597 473.452 522.385 311.27 521.686 306.774C521.67 306.67 521.663 306.566 521.663 306.462V294.368C521.662 293.927 521.8 293.498 522.056 293.14L525.914 287.74C526.098 287.48 526.338 287.265 526.617 287.113C526.897 286.96 527.207 286.874 527.525 286.86C549.525 285.829 621.561 282.806 625.041 287.154C628.536 291.519 627.294 304.765 627.012 307.374L627.026 307.646L659.392 514.628C659.646 516.279 659.238 517.963 658.259 519.317C657.28 520.67 655.807 521.583 654.159 521.858L633.945 525.188C632.44 525.43 630.897 525.123 629.599 524.324C628.3 523.525 627.331 522.286 626.869 520.833C620.617 500.855 599.653 433.649 592.387 407.643C592.348 407.471 592.246 407.321 592.101 407.222C591.956 407.122 591.778 407.081 591.604 407.106C591.43 407.131 591.272 407.221 591.161 407.358C591.051 407.494 590.995 407.667 591.006 407.843C591.369 432.633 592.246 495.879 592.555 517.724L592.587 520.077C592.6 521.67 592.016 523.209 590.949 524.392C589.882 525.575 588.41 526.314 586.824 526.464L567.332 528.23C567.136 528.247 566.94 528.254 566.743 528.252Z" fill="#2F2E41"/>
<path d="M570.721 96.4498C564.686 100.038 561.074 106.63 559.002 113.35C555.165 125.77 552.856 138.612 552.125 151.591L549.934 190.451L522.821 293.479C546.321 313.362 559.874 308.842 591.507 292.579C623.14 276.316 626.753 298.001 626.753 298.001L633.078 210.338L642.115 114.545C640.086 112.102 637.79 109.895 635.269 107.964C626.916 101.467 617.198 96.9509 606.846 94.7556C596.494 92.5604 585.779 92.7434 575.508 95.2908L570.721 96.4498Z" fill="#1CBFC3"/>
<path d="M561.915 216.764C562.644 217.036 563.35 217.366 564.027 217.75L626.474 186.491L627.51 169.558L653.269 167.782L654.649 206.382L571.199 233.982C570.518 236.906 568.963 239.554 566.741 241.573C564.518 243.591 561.734 244.886 558.758 245.283C555.782 245.681 552.755 245.163 550.081 243.798C547.406 242.433 545.211 240.287 543.786 237.644C542.362 235.001 541.775 231.987 542.106 229.002C542.436 226.018 543.668 223.205 545.636 220.938C547.604 218.67 550.216 217.056 553.124 216.31C556.032 215.563 559.099 215.72 561.916 216.759L561.915 216.764Z" fill="#A0616A"/>
<path d="M641.665 114.976C657.028 120.398 659.736 179.147 659.736 179.147C641.661 169.206 619.971 185.473 619.971 185.473C619.971 185.473 615.453 170.108 610.03 150.227C608.393 144.634 608.197 138.718 609.461 133.03C610.725 127.341 613.407 122.065 617.259 117.692C617.259 117.692 626.3 109.551 641.665 114.976Z" fill="#1CBFC3"/>
<path d="M623.672 57.4108C619.363 53.9638 613.485 60.2267 613.485 60.2267L610.038 29.2107C610.038 29.2107 588.495 31.7917 574.704 28.3487C560.913 24.9057 558.761 40.8487 558.761 40.8487C558.05 34.4101 557.906 27.9216 558.33 21.4577C559.192 13.7017 570.394 5.94575 590.215 0.774748C610.036 -4.39625 620.377 18.0107 620.377 18.0107C634.173 24.8998 627.986 60.8618 623.672 57.4108Z" fill="#2F2E41"/>
<path d="M161.13 45.5517C160.307 45.5532 159.518 45.8812 158.936 46.4638C158.355 47.0463 158.028 47.8358 158.028 48.6589C158.028 49.482 158.355 50.2715 158.936 50.854C159.518 51.4365 160.307 51.7646 161.13 51.7661H387.988C388.811 51.7646 389.6 51.4365 390.182 50.854C390.763 50.2715 391.09 49.482 391.09 48.6589C391.09 47.8358 390.763 47.0463 390.182 46.4638C389.6 45.8812 388.811 45.5532 387.988 45.5517H161.13Z" fill="#CCCCCC"/>
<path d="M161.13 64.1946C160.306 64.1941 159.516 64.5203 158.933 65.1016C158.35 65.683 158.022 66.4719 158.02 67.2953C158.019 68.1186 158.344 68.9089 158.924 69.4927C159.505 70.0765 160.293 70.406 161.117 70.4089H304.539C304.947 70.4089 305.351 70.3286 305.728 70.1724C306.105 70.0163 306.447 69.7874 306.736 69.4989C307.025 69.2103 307.253 68.8678 307.41 68.4908C307.566 68.1139 307.646 67.7098 307.646 67.3018C307.646 66.8938 307.566 66.4897 307.41 66.1127C307.253 65.7358 307.025 65.3932 306.736 65.1047C306.447 64.8162 306.105 64.5873 305.728 64.4312C305.351 64.275 304.947 64.1946 304.539 64.1946H161.13Z" fill="#CCCCCC"/>
<path d="M385.145 21.7993C385.145 29.3335 379.294 35.4413 372.077 35.4413C364.859 35.4413 359.009 29.3336 359.009 21.7993C359.009 21.6285 359.011 21.4589 359.018 21.2896C359.151 13.7567 365.11 7.7644 372.326 7.90508C379.542 8.04576 385.282 14.2665 385.147 21.7993H385.145Z" fill="#1CBFC3"/>
<path d="M367.475 27.8578L363.711 22.8392L364.602 22.1702L367.669 26.2588L379.741 16.3824L380.447 17.245L367.475 27.8578Z" fill="white"/>
<path d="M161.13 159.552C160.307 159.553 159.518 159.881 158.936 160.464C158.355 161.046 158.028 161.836 158.028 162.659C158.028 163.482 158.355 164.271 158.936 164.854C159.518 165.437 160.307 165.765 161.13 165.766H387.988C388.811 165.765 389.6 165.437 390.182 164.854C390.763 164.271 391.09 163.482 391.09 162.659C391.09 161.836 390.763 161.046 390.182 160.464C389.6 159.881 388.811 159.553 387.988 159.552H161.13Z" fill="#CCCCCC"/>
<path d="M161.13 178.195C160.306 178.194 159.516 178.52 158.933 179.102C158.35 179.683 158.022 180.472 158.02 181.295C158.019 182.119 158.344 182.909 158.924 183.493C159.505 184.077 160.293 184.406 161.117 184.409H304.539C305.363 184.409 306.153 184.082 306.736 183.499C307.319 182.916 307.646 182.126 307.646 181.302C307.646 180.478 307.319 179.687 306.736 179.105C306.153 178.522 305.363 178.195 304.539 178.195H161.13Z" fill="#CCCCCC"/>
<path d="M384.145 135.799C384.145 143.333 378.294 149.441 371.077 149.441C363.859 149.441 358.009 143.334 358.009 135.799C358.009 135.628 358.011 135.459 358.018 135.29C358.151 127.757 364.11 121.764 371.326 121.905C378.542 122.046 384.282 128.266 384.147 135.799H384.145Z" fill="#1CBFC3"/>
<path d="M366.475 141.858L362.711 136.839L363.602 136.17L366.669 140.259L378.741 130.382L379.447 131.245L366.475 141.858Z" fill="white"/>
<path d="M161.13 273.552C160.307 273.553 159.518 273.881 158.936 274.464C158.355 275.046 158.028 275.836 158.028 276.659C158.028 277.482 158.355 278.271 158.936 278.854C159.518 279.437 160.307 279.765 161.13 279.766H387.988C388.811 279.765 389.6 279.437 390.182 278.854C390.763 278.271 391.09 277.482 391.09 276.659C391.09 275.836 390.763 275.046 390.182 274.464C389.6 273.881 388.811 273.553 387.988 273.552H161.13Z" fill="#CCCCCC"/>
<path d="M161.13 292.195C160.306 292.194 159.516 292.52 158.933 293.102C158.35 293.683 158.022 294.472 158.02 295.295C158.019 296.119 158.344 296.909 158.924 297.493C159.505 298.077 160.293 298.406 161.117 298.409H304.539C305.363 298.409 306.153 298.082 306.736 297.499C307.319 296.916 307.646 296.126 307.646 295.302C307.646 294.478 307.319 293.687 306.736 293.105C306.153 292.522 305.363 292.195 304.539 292.195H161.13Z" fill="#CCCCCC"/>
<path d="M384.145 249.799C384.145 257.334 378.294 263.441 371.077 263.441C363.859 263.441 358.009 257.334 358.009 249.799C358.009 249.628 358.011 249.459 358.018 249.29C358.151 241.757 364.11 235.764 371.326 235.905C378.542 236.046 384.282 242.266 384.147 249.799H384.145Z" fill="#1CBFC3"/>
<path d="M366.475 255.858L362.711 250.839L363.602 250.17L366.669 254.259L378.741 244.382L379.447 245.245L366.475 255.858Z" fill="white"/>
</g>
<defs>
<clipPath id="clip0_107_30">
<rect width="738.22" height="557.747" fill="white"/>
</clipPath>
</defs>
</svg>
