<svg width="585" height="414" viewBox="0 0 585 414" fill="none" xmlns="http://www.w3.org/2000/svg">
<path d="M220.461 80.8288C216.006 64.2574 251.941 50.047 261.377 63.392C262.689 61.4948 267.538 60.3424 269.763 60.9244C271.988 61.5064 273.859 62.9614 275.685 64.3698C278.195 66.337 280.797 68.374 282.337 71.2025C283.889 74.0194 284.128 77.8606 282.04 80.305C280.386 82.2489 275.502 83.506 273.015 84.0182C271.281 84.379 269.82 84.67 268.565 84.8795C267.447 83.215 266.876 81.1547 267.082 79.141C265.393 80.2817 264.252 82.2372 264.07 84.3092C264.035 84.7399 278.092 137.504 278.092 137.504C276.643 138.377 274.852 139.192 272.787 139.937C269.284 134.547 266.409 128.192 264.515 121.546C264.081 125.654 264.15 130.113 264.674 134.641C264.948 137.05 265.359 139.471 265.884 141.892C249.18 145.571 224.055 144.36 213.125 128.716C213.123 128.651 213.121 128.586 213.119 128.522C213.041 125.594 209.126 124.867 208.078 127.593C207.813 128.283 207.569 128.881 207.351 129.356C204.168 117.739 208.287 104.295 220.461 80.8288V80.8288Z" fill="#2F2E41"/>
<path d="M447.517 212.239C443.564 217.021 436.561 217.63 431.873 213.598C431.419 213.207 430.996 212.78 430.609 212.32L377.857 229.365L369.648 215.639L432.448 195.862C437.375 192.153 444.315 193.222 447.951 198.248C450.992 202.454 450.813 208.238 447.517 212.239H447.517Z" fill="#FFB6B6"/>
<path d="M260.699 169.646C260.699 169.646 284.06 142.84 294.236 154.227C304.412 165.614 336.16 215.511 336.16 215.511L410.27 199.56L417.436 219.513L333.288 247.331C326.962 249.423 320.03 247.254 315.94 241.905L260.699 169.646V169.646Z" fill="#1CBFC3"/>
<path d="M311.437 414H195.569L195.463 413.077L195.395 412.462L194.4 403.849L192.991 391.583L192.448 386.869C192.41 386.631 192.373 386.4 192.342 386.162C191.867 383.093 191.596 380.009 191.498 376.933C191.355 372.704 191.543 368.482 191.988 364.314V364.291C192.229 362.038 192.538 359.807 192.923 357.6C193.405 354.763 193.986 351.971 194.657 349.241C195.425 346.073 196.3 342.989 197.257 340.013C198.358 336.529 199.564 333.192 200.808 330.039C200.943 329.7 201.079 329.362 201.207 329.031L201.215 329.024C207.773 312.713 215.221 301.57 215.221 301.57H299.632C299.632 301.57 303.537 319.05 305.474 333.484C305.783 335.768 306.04 337.967 306.228 340.013C306.567 343.789 306.665 347.034 306.371 349.241C306.19 350.61 305.859 351.579 305.346 352.025C300.703 356.07 306.017 364.652 306.017 364.652C306.017 364.652 309.997 370.858 306.53 374.35C305.844 375.042 305.452 375.934 305.263 376.933C304.962 378.587 305.226 380.509 305.64 382.209C306.055 383.916 306.628 385.4 306.944 386.162C307.087 386.5 307.178 386.692 307.178 386.692L307.766 391.437L308.339 396.005L309.311 403.849L309.605 405.233L311.12 412.462L311.248 413.077L311.437 414H311.437Z" fill="#2F2E41"/>
<path d="M252.91 132.972L217.482 136.191L210.953 156.921L203.837 157.972C191.677 159.768 184.44 172.778 189.165 184.349L195.426 199.683C195.426 199.683 186.229 228.642 197.524 240.81L202.331 294.401L191.488 329.731L318.229 333.904L296.64 289.589L296 262.074C296 262.074 309.795 212.341 297.006 196.521L292.015 151.527L266.017 147.548L252.91 132.972H252.91Z" fill="#1CBFC3"/>
<path d="M276.895 106.378C280.545 90.3143 270.74 74.273 254.994 70.5487C239.248 66.8244 223.524 76.8273 219.873 92.8909C216.223 108.954 226.028 124.996 241.774 128.72C257.52 132.444 273.244 122.441 276.895 106.378Z" fill="#FFB6B6"/>
<path d="M204.487 83.1568C200.032 66.5854 235.967 52.375 245.403 65.72C246.715 63.8228 251.564 62.6704 253.789 63.2524C256.014 63.8344 257.885 65.2894 259.711 66.6978C262.221 68.665 264.823 70.702 266.363 73.5305C267.915 76.3474 268.154 80.1887 266.066 82.633C264.412 84.5769 259.528 85.834 257.041 86.3462C255.307 86.707 253.846 86.998 252.591 87.2075C251.473 85.543 250.903 83.4827 251.108 81.469C249.419 82.6097 248.278 84.5652 248.096 86.6372C248.062 87.0679 262.119 139.832 262.119 139.832C260.669 140.705 258.878 141.52 256.813 142.265C253.31 136.875 250.435 130.52 248.541 123.874C248.107 127.983 248.176 132.441 248.701 136.969C248.974 139.378 249.385 141.799 249.91 144.22C233.206 147.899 208.082 146.688 197.151 131.044C197.149 130.979 197.147 130.914 197.145 130.85C197.067 127.922 193.152 127.195 192.105 129.921C191.839 130.611 191.595 131.209 191.377 131.684C188.194 120.067 192.313 106.623 204.487 83.1568L204.487 83.1568Z" fill="#2F2E41"/>
<path d="M454.669 413.077H61.1793L0.120605 413.846L428.332 387.766C442.616 386.896 454.669 398.479 454.669 413.077V413.077Z" fill="#3F3D56"/>
<path d="M551.036 412.462V414H0V0H1.50762V412.462H551.036Z" fill="#3F3D56"/>
<path d="M492.075 95.7574H391.779C389.466 95.7574 387.584 93.8445 387.584 91.4936C387.584 89.1427 389.466 87.2307 391.779 87.2307H492.075C494.387 87.2307 496.269 89.1427 496.269 91.4936C496.269 93.8445 494.387 95.7574 492.075 95.7574Z" fill="#1CBFC3"/>
<path d="M441.889 109.508C441.514 108.565 440.219 108.565 439.844 109.508C437.229 116.085 433.507 123.45 429.457 129.078C428.809 129.979 429.703 131.183 430.733 130.803L439.413 127.599V182.418H442.319V127.599L451.003 130.803C452.033 131.184 452.927 129.98 452.279 129.078C448.229 123.45 444.506 116.085 441.889 109.508Z" fill="#3F3D56"/>
<path d="M582.414 127.093H520.579C519.153 127.093 517.993 125.914 517.993 124.465C517.993 123.015 519.153 121.836 520.579 121.836H582.414C583.84 121.836 585 123.015 585 124.465C585 125.914 583.84 127.093 582.414 127.093Z" fill="#F2F2F2"/>
<path d="M551.473 135.571C551.242 134.99 550.444 134.99 550.213 135.571C548.601 139.626 546.306 144.166 543.809 147.636C543.409 148.192 543.96 148.934 544.596 148.7L549.947 146.725V180.522H551.739V146.725L557.092 148.7C557.728 148.935 558.279 148.192 557.879 147.637C555.382 144.167 553.087 139.626 551.473 135.571Z" fill="#F2F2F2"/>
<path d="M551.507 213.133C558.928 213.133 564.943 206.996 564.943 199.425C564.943 191.855 558.928 185.718 551.507 185.718C544.086 185.718 538.07 191.855 538.07 199.425C538.07 206.996 544.086 213.133 551.507 213.133Z" fill="#F2F2F2"/>
<path d="M384.162 49.4227H322.327C320.901 49.4227 319.741 48.2434 319.741 46.794C319.741 45.3446 320.901 44.1658 322.327 44.1658H384.162C385.588 44.1658 386.748 45.3446 386.748 46.794C386.748 48.2434 385.588 49.4227 384.162 49.4227Z" fill="#F2F2F2"/>
<path d="M353.221 57.9002C352.99 57.3191 352.192 57.3192 351.961 57.9003C350.349 61.955 348.053 66.4957 345.557 69.9658C345.157 70.5214 345.708 71.2638 346.343 71.0293L351.695 69.0541V102.851H353.487V69.0541L358.84 71.0295C359.475 71.264 360.026 70.5216 359.627 69.966C357.13 66.4959 354.835 61.955 353.221 57.9002H353.221Z" fill="#F2F2F2"/>
<path d="M353.255 135.462C360.675 135.462 366.691 129.325 366.691 121.755C366.691 114.184 360.675 108.047 353.255 108.047C345.834 108.047 339.818 114.184 339.818 121.755C339.818 129.325 345.834 135.462 353.255 135.462Z" fill="#F2F2F2"/>
<path d="M197.474 387.36C200.645 382.006 198.961 375.044 193.713 371.809C193.205 371.496 192.672 371.224 192.121 370.998L191.009 314.559L175.631 311.035L177.433 378.058C175.572 384.009 178.792 390.372 184.625 392.271C189.506 393.859 194.818 391.829 197.474 387.36Z" fill="#FFB6B6"/>
<path d="M208.172 164.685C208.172 164.685 189.327 160.071 183.297 173.144C177.266 186.217 176.753 243.106 176.753 243.106L173.497 358.477L197.402 357.402L216.464 215.44L208.172 164.685Z" fill="#1CBFC3"/>
<path d="M199.714 404.383C200.138 404.926 200.782 405.24 201.462 405.237H323.836C325.08 405.235 326.087 404.206 326.085 402.937C326.085 402.779 326.069 402.622 326.037 402.468L324.138 393.263C323.978 392.501 323.45 391.872 322.736 391.594C322.481 391.493 322.21 391.44 321.937 391.441H203.355C203.081 391.44 202.81 391.493 202.556 391.594C201.841 391.872 201.313 392.501 201.153 393.263L199.254 402.468C199.117 403.145 199.286 403.848 199.714 404.383Z" fill="#CCCCCC"/>
<path d="M152.864 198.318V342.324C152.867 346.145 155.903 349.242 159.649 349.245H368.831C372.577 349.242 375.612 346.145 375.615 342.324V198.318C375.606 194.5 372.573 191.409 368.831 191.404H159.649C155.907 191.409 152.873 194.5 152.864 198.318Z" fill="#E6E6E6"/>
<path d="M290.398 318.45C290.149 318.365 289.886 318.327 289.622 318.327H240.684C239.245 318.327 238.069 319.519 238.069 320.987V399.858H292.23V320.987C292.23 319.826 291.491 318.796 290.398 318.45ZM270.769 357.239C270.754 360.5 268.153 363.13 264.957 363.114C261.784 363.091 259.221 360.476 259.205 357.239V348.088C259.236 344.835 261.851 342.22 265.04 342.251C268.191 342.282 270.739 344.881 270.769 348.088V357.239Z" fill="#CCCCCC"/>
</svg>
