<svg width="60" height="60" viewBox="0 0 60 60" fill="none" xmlns="http://www.w3.org/2000/svg">
<path d="M30 5C16.2225 5 5 16.2225 5 30C5 43.7775 16.2225 55 30 55C43.7775 55 55 43.7775 55 30C55 16.2225 43.7775 5 30 5ZM30 10C41.0753 10 50 18.9247 50 30C50 40.0362 42.6633 48.2825 33.0469 49.7461V35.9619H38.8672L39.7803 30.0488H33.0469V26.8164C33.0469 24.3589 33.8475 22.1777 36.1475 22.1777H39.8389V17.0166C39.1889 16.9291 37.8171 16.7383 35.2246 16.7383C29.8096 16.7383 26.6357 19.5983 26.6357 26.1133V30.0488H21.0693V35.9619H26.6357V49.6973C17.1757 48.1021 10 39.9256 10 30C10 18.9247 18.9247 10 30 10Z" fill="black"/>
</svg>
