<svg width="32" height="53" viewBox="0 0 32 53" fill="none" xmlns="http://www.w3.org/2000/svg">
<rect x="2" y="2" width="28" height="49" rx="8" fill="white" stroke="#1CBFC3" stroke-width="4"/>
<path d="M0 42.2464H32V43C32 48.5229 27.5228 53 22 53H10C4.47715 53 0 48.5229 0 43V42.2464Z" fill="#1CBFC3"/>
<rect x="9.6" y="46.0869" width="12.8" height="3.07246" rx="1.53623" fill="white"/>
<path d="M24.9995 31.7225V34.8839C25.0004 35.1774 24.9517 35.4679 24.8563 35.7368C24.7609 36.0057 24.6211 36.247 24.4457 36.4454C24.2702 36.6438 24.0632 36.7949 23.8376 36.8889C23.6121 36.9829 23.3732 37.0179 23.1361 36.9914C20.5059 36.6391 17.9794 35.5311 15.7596 33.7563C13.6943 32.1384 11.9434 29.9798 10.631 27.4336C9.18648 24.6845 8.28751 21.5546 8.00694 18.2973C7.98558 18.0059 8.01367 17.7122 8.08942 17.435C8.16518 17.1577 8.28693 16.9029 8.44694 16.6868C8.60694 16.4707 8.80169 16.298 9.01879 16.1798C9.23589 16.0616 9.47057 16.0004 9.7079 16.0001H12.2722C12.687 15.9951 13.0891 16.1762 13.4037 16.5096C13.7182 16.8431 13.9236 17.3062 13.9817 17.8126C14.0899 18.8243 14.2906 19.8177 14.58 20.7737C14.695 21.1509 14.7199 21.5608 14.6517 21.9549C14.5836 22.349 14.4252 22.7107 14.1954 22.9972L13.1098 24.3355C14.3266 26.9737 16.0984 29.1581 18.2384 30.6582L19.3239 29.3199C19.5563 29.0366 19.8497 28.8413 20.1694 28.7573C20.489 28.6732 20.8215 28.7039 21.1274 28.8457C21.9029 29.2025 22.7087 29.4499 23.5293 29.5834C23.9445 29.6556 24.3237 29.9134 24.5948 30.3078C24.8658 30.7022 25.0099 31.2057 24.9995 31.7225Z" fill="white" stroke="#1CBFC3" stroke-width="3" stroke-linecap="round" stroke-linejoin="round"/>
</svg>
