<svg width="28" height="38" viewBox="0 0 28 38" fill="none" xmlns="http://www.w3.org/2000/svg">
<path d="M27.2218 5.60876H0.777954V32.724H27.2218V5.60876Z" fill="#FFE2E2"/>
<path d="M27.2218 2.47518V5.60882H0.777954V2.47518C0.777954 1.4476 1.83098 0.615173 3.13239 0.615173H24.8673C26.1687 0.615173 27.2218 1.4476 27.2218 2.47518Z" fill="#87828E"/>
<path d="M27.2218 32.724V35.5245C27.2218 36.5521 26.1687 37.3847 24.8673 37.3847H3.13239C1.83079 37.3847 0.777954 36.5521 0.777954 35.5245V32.724H27.2218Z" fill="#87828E"/>
<path d="M3.62389 5.60876H0.777954V32.724H3.62389V5.60876Z" fill="#FFEFEE"/>
<path d="M5.97833 0.615173C4.67673 0.615173 3.62389 1.44776 3.62389 2.47518V5.60882H0.777954V2.47518C0.777954 1.4476 1.83098 0.615173 3.13239 0.615173H5.97833Z" fill="#A4A4A5"/>
<path d="M5.97833 37.3847H3.13239C1.83079 37.3847 0.777954 36.5521 0.777954 35.5245V32.724H3.62389V35.5245C3.62389 36.5521 4.67673 37.3847 5.97833 37.3847Z" fill="#A4A4A5"/>
<path d="M27.2213 5.60956H23.6726V32.7243H27.2213V5.60956Z" fill="#FFCFCF"/>
<path d="M27.2214 2.4746V5.60962H23.6727V2.4746C23.6727 1.44763 22.6199 0.615356 21.3188 0.615356H24.8675C26.1685 0.615356 27.2214 1.44763 27.2214 2.4746Z" fill="#796E84"/>
<path d="M27.2214 32.7244V35.5245C27.2214 36.5514 26.1685 37.3855 24.8675 37.3855H21.3188C22.6201 37.3855 23.6727 36.5513 23.6727 35.5245V32.7244H27.2214Z" fill="#796E84"/>
<path d="M12.7574 28.8598C13.8417 29.9327 15.6648 30.494 17.425 30.6446C18.5366 30.7396 19.433 29.9364 19.1784 29.0757L18.1079 25.4578C17.9595 24.9563 17.4674 24.5663 16.8362 24.4386C14.3093 23.9281 12.634 21.2942 12.6708 19.5065C12.6916 18.4885 12.3555 16.8536 14.6411 14.6878C15.2349 14.1252 16.0349 13.7496 16.9847 13.5823C17.5392 13.4846 17.9822 13.1548 18.1696 12.7306L19.8059 9.02417C20.1718 8.19543 19.3811 7.32686 18.2713 7.34854C17.1959 7.36946 15.9557 7.56046 14.9218 7.87125C14.0508 8.13314 13.2967 8.59065 12.741 9.1941C12.7412 9.1944 2.29592 18.5091 12.7574 28.8598Z" fill="#44C7B6"/>
<path d="M27.9998 2.47514C27.9998 1.11032 26.5945 0 24.8674 0H3.13244C1.40527 0 0 1.11032 0 2.47514C0 3.60576 0.000778319 30.5641 0.000778319 35.5241C0.000778319 36.8892 1.40547 38 3.13225 38H24.8666C26.5943 38 28 36.8894 28 35.5241C28 33.8957 27.9998 4.00113 27.9998 2.47514ZM1.55679 32.1087V6.22392H26.444V32.1087C25.4462 32.1087 2.55205 32.1087 1.55679 32.1087ZM3.13244 1.23027H24.8674C25.7366 1.23027 26.4438 1.78865 26.4438 2.47514V4.99334H1.55601V2.47514C1.55601 1.78865 2.26322 1.23027 3.13244 1.23027ZM26.444 35.5241C26.444 36.2109 25.7364 36.7697 24.8666 36.7697H3.13225C2.2636 36.7697 1.55679 36.211 1.55679 35.5241V33.3391C2.55244 33.3391 25.447 33.3391 26.444 33.3391C26.444 34.2122 26.444 34.7698 26.444 35.5241Z" fill="#5F266D"/>
<path d="M12.4699 3.7368H15.53C15.9596 3.7368 16.308 3.46137 16.308 3.12166C16.308 2.78196 15.9596 2.50653 15.53 2.50653H12.4699C12.0402 2.50653 11.6919 2.78196 11.6919 3.12166C11.6919 3.46137 12.0402 3.7368 12.4699 3.7368Z" fill="#5F266D"/>
<path d="M16.0301 34.4062H11.9695C11.5399 34.4062 11.1915 34.6817 11.1915 35.0214C11.1915 35.3611 11.5399 35.6365 11.9695 35.6365H16.0301C16.4598 35.6365 16.8081 35.3611 16.8081 35.0214C16.8081 34.6817 16.4598 34.4062 16.0301 34.4062Z" fill="#5F266D"/>
<path d="M18.2522 6.73387C15.932 6.77924 13.5124 7.33117 12.1336 8.80948C11.837 9.08014 9.3608 11.4129 8.07807 14.9771C6.83851 18.4212 6.53879 23.6922 12.1498 29.2437C13.2526 30.3348 15.1449 31.0684 17.3418 31.2562C18.9956 31.3967 20.3104 30.1998 19.9362 28.9356L18.8657 25.3177C18.6513 24.5935 17.9476 24.0283 17.0292 23.8429C14.8566 23.404 13.4183 21.0096 13.449 19.5166C13.4698 18.5052 13.1499 17.0616 15.2388 15.0823C15.7222 14.6243 16.3665 14.3218 17.1543 14.1831C17.956 14.042 18.6266 13.5632 18.9044 12.9338L20.5409 9.22716C21.0867 7.98997 19.8967 6.69835 18.2522 6.73387ZM19.0715 8.82163L17.4349 12.5283C17.3332 12.7588 17.0957 12.9327 16.8155 12.9821C15.7008 13.1785 14.7423 13.6321 14.0438 14.2939C11.5666 16.6412 11.9146 18.4391 11.893 19.4967C11.8531 21.4279 13.625 24.4248 16.6437 25.0347C16.9979 25.1062 17.2688 25.3221 17.3503 25.5979L18.4209 29.2158C18.5541 29.6657 18.0855 30.0826 17.5088 30.033C15.7214 29.8803 14.2111 29.3126 13.3652 28.4757C9.20715 24.3617 7.92636 19.9488 9.55822 15.3596C10.7511 12.0049 13.0464 9.90888 13.3703 9.55641C14.4445 8.38966 16.5393 7.99797 18.2905 7.96383C18.8484 7.94876 19.2603 8.39365 19.0715 8.82163Z" fill="#5F266D"/>
<path d="M22.5582 10.3193C22.1285 10.3193 21.7802 10.5948 21.7802 10.9345V15.2404C21.7802 15.5801 22.1285 15.8555 22.5582 15.8555C22.9878 15.8555 23.3362 15.5801 23.3362 15.2404V10.9345C23.3362 10.5948 22.9878 10.3193 22.5582 10.3193Z" fill="#5F266D"/>
<path d="M22.5582 16.932C22.1285 16.932 21.7802 17.2074 21.7802 17.5471V18.2315C21.7802 18.5712 22.1285 18.8466 22.5582 18.8466C22.9878 18.8466 23.3362 18.5712 23.3362 18.2315V17.5471C23.3362 17.2074 22.9878 16.932 22.5582 16.932Z" fill="#5F266D"/>
</svg>
