<svg width="29" height="40" viewBox="0 0 33 40" fill="none" xmlns="http://www.w3.org/2000/svg">
<path d="M32.5417 5.24597H0.458374V34.7542H32.5417V5.24597Z" fill="#F9A7A7"/>
<path d="M32.5417 31.3115H0.458374V34.7541H32.5417V31.3115Z" fill="#F9CFCF"/>
<path d="M0.458374 2.95077V5.24585H32.5417V2.95077C32.5417 1.50208 30.9002 0.32782 28.875 0.32782H4.12504C2.0999 0.32782 0.458374 1.50208 0.458374 2.95077Z" fill="#4671C6"/>
<path d="M32.5417 37.0491V34.754H0.458374V37.0491C0.458374 38.4978 2.0999 39.6721 4.12504 39.6721H28.875C30.9002 39.6721 32.5417 38.4978 32.5417 37.0491Z" fill="#4671C6"/>
<path d="M28.875 40H4.125C1.85052 40 0 38.6762 0 37.0492V2.95082C0 1.32377 1.85052 0 4.125 0H28.875C31.1495 0 33 1.32377 33 2.95082V37.0492C33 38.6762 31.1495 40 28.875 40ZM4.125 0.655738C2.35583 0.655738 0.916667 1.68525 0.916667 2.95082V37.0492C0.916667 38.3148 2.35583 39.3443 4.125 39.3443H28.875C30.6442 39.3443 32.0833 38.3148 32.0833 37.0492V2.95082C32.0833 1.68525 30.6442 0.655738 28.875 0.655738H4.125Z" fill="#3762CC"/>
<path d="M19.25 38.5246H13.75C12.9905 38.5246 12.375 38.0842 12.375 37.541V36.8852C12.375 36.3419 12.9905 35.9016 13.75 35.9016H19.25C20.0095 35.9016 20.625 36.3419 20.625 36.8852V37.541C20.625 38.0842 20.0095 38.5246 19.25 38.5246Z" fill="#A4C9FF"/>
<path d="M19.9375 3.60651H13.0625C12.4297 3.60651 11.9166 3.23946 11.9166 2.78684C11.9166 2.33421 12.4297 1.96716 13.0625 1.96716H19.9375C20.5702 1.96716 21.0833 2.33421 21.0833 2.78684C21.0833 3.23946 20.5702 3.60651 19.9375 3.60651Z" fill="#F9CFCF"/>
<path d="M32.5417 5.57377H0.458333C0.205333 5.57377 0 5.42689 0 5.2459V2.95082C0 1.32377 1.85052 0 4.125 0H28.875C31.1495 0 33 1.32377 33 2.95082V5.2459C33 5.42689 32.7947 5.57377 32.5417 5.57377ZM0.916667 4.91803H32.0833V2.95082C32.0833 1.68525 30.6442 0.655738 28.875 0.655738H4.125C2.35583 0.655738 0.916667 1.68525 0.916667 2.95082V4.91803Z" fill="#3762CC"/>
<path d="M28.875 40H4.125C1.85052 40 0 38.6762 0 37.0492V34.7541C0 34.5731 0.205333 34.4262 0.458333 34.4262H32.5417C32.7947 34.4262 33 34.5731 33 34.7541V37.0492C33 38.6762 31.1495 40 28.875 40ZM0.916667 35.0819V37.0492C0.916667 38.3147 2.35583 39.3442 4.125 39.3442H28.875C30.6442 39.3442 32.0833 38.3147 32.0833 37.0492V35.0819H0.916667Z" fill="#3762CC"/>
<path d="M9.625 33.1147H4.125C3.74527 33.1147 3.4375 32.8946 3.4375 32.6229V28.6885C3.4375 28.4169 3.74527 28.1967 4.125 28.1967H9.625C10.0047 28.1967 10.3125 28.4169 10.3125 28.6885V32.6229C10.3125 32.8946 10.0047 33.1147 9.625 33.1147Z" fill="#6BDDDD"/>
<path d="M19.25 33.1147H13.75C13.3703 33.1147 13.0625 32.8946 13.0625 32.6229V28.6885C13.0625 28.4169 13.3703 28.1967 13.75 28.1967H19.25C19.6297 28.1967 19.9375 28.4169 19.9375 28.6885V32.6229C19.9375 32.8946 19.6297 33.1147 19.25 33.1147Z" fill="#6BDDDD"/>
<path d="M28.875 33.1147H23.375C22.9953 33.1147 22.6875 32.8946 22.6875 32.6229V28.6885C22.6875 28.4169 22.9953 28.1967 23.375 28.1967H28.875C29.2547 28.1967 29.5625 28.4169 29.5625 28.6885V32.6229C29.5625 32.8946 29.2547 33.1147 28.875 33.1147Z" fill="#6BDDDD"/>
<path d="M9.28128 11.7213H6.39378C5.48261 11.7213 4.74377 11.1928 4.74377 10.541V8.47543C4.74377 7.82363 5.48261 7.2951 6.39378 7.2951H9.28128C10.1924 7.2951 10.9313 7.82363 10.9313 8.47543V10.541C10.9313 11.1928 10.1924 11.7213 9.28128 11.7213Z" fill="#A4C9FF"/>
<path d="M17.9438 11.7213H15.0562C14.1451 11.7213 13.4062 11.1928 13.4062 10.541V8.47543C13.4062 7.82363 14.1451 7.2951 15.0562 7.2951H17.9438C18.8549 7.2951 19.5938 7.82363 19.5938 8.47543V10.541C19.5938 11.1928 18.8549 11.7213 17.9438 11.7213Z" fill="#E0EBFC"/>
<path d="M26.6062 11.7213H23.7187C22.8076 11.7213 22.0687 11.1928 22.0687 10.541V8.47543C22.0687 7.82363 22.8076 7.2951 23.7187 7.2951H26.6062C27.5174 7.2951 28.2562 7.82363 28.2562 8.47543V10.541C28.2562 11.1928 27.5174 11.7213 26.6062 11.7213Z" fill="#FFEA92"/>
<path d="M9.28128 17.6229H6.39378C5.48261 17.6229 4.74377 17.0944 4.74377 16.4426V14.377C4.74377 13.7252 5.48261 13.1967 6.39378 13.1967H9.28128C10.1924 13.1967 10.9313 13.7252 10.9313 14.377V16.4426C10.9313 17.0944 10.1924 17.6229 9.28128 17.6229Z" fill="#E0EBFC"/>
<path d="M17.9438 17.6229H15.0562C14.1451 17.6229 13.4062 17.0944 13.4062 16.4426V14.377C13.4062 13.7252 14.1451 13.1967 15.0562 13.1967H17.9438C18.8549 13.1967 19.5938 13.7252 19.5938 14.377V16.4426C19.5938 17.0944 18.8549 17.6229 17.9438 17.6229Z" fill="#A4C9FF"/>
<path d="M26.6062 17.6229H23.7187C22.8076 17.6229 22.0687 17.0944 22.0687 16.4426V14.377C22.0687 13.7252 22.8076 13.1967 23.7187 13.1967H26.6062C27.5174 13.1967 28.2562 13.7252 28.2562 14.377V16.4426C28.2562 17.0944 27.5174 17.6229 26.6062 17.6229Z" fill="#E0EBFC"/>
<path d="M9.28128 23.5246H6.39378C5.48261 23.5246 4.74377 22.9961 4.74377 22.3443V20.2787C4.74377 19.6269 5.48261 19.0984 6.39378 19.0984H9.28128C10.1924 19.0984 10.9313 19.6269 10.9313 20.2787V22.3443C10.9313 22.9961 10.1924 23.5246 9.28128 23.5246Z" fill="#FFEA92"/>
<path d="M28.875 40H4.125C1.85052 40 0 38.6762 0 37.0492V2.95082C0 1.32377 1.85052 0 4.125 0H28.875C31.1495 0 33 1.32377 33 2.95082V37.0492C33 38.6762 31.1495 40 28.875 40ZM4.125 0.655738C2.35583 0.655738 0.916667 1.68525 0.916667 2.95082V37.0492C0.916667 38.3148 2.35583 39.3443 4.125 39.3443H28.875C30.6442 39.3443 32.0833 38.3148 32.0833 37.0492V2.95082C32.0833 1.68525 30.6442 0.655738 28.875 0.655738H4.125Z" fill="#3762CC"/>
</svg>
