<svg width="48" height="45" viewBox="0 0 48 45" fill="none" xmlns="http://www.w3.org/2000/svg">
<path d="M24 13.3333H13.7143C6.14014 13.3333 0 19.3029 0 26.6666V41.6666C0 43.5076 1.53504 45 3.42857 45H34.2857C36.1792 45 37.7143 43.5076 37.7143 41.6666V26.6666C37.7143 19.3029 31.5741 13.3333 24 13.3333Z" fill="#463C4B"/>
<path d="M24 13.3333H18.8572C20.7507 13.3333 22.2857 14.8257 22.2857 16.6666V41.6666C22.2857 43.5076 20.7507 45 18.8572 45H34.2857C36.1793 45 37.7143 43.5076 37.7143 41.6666V26.6666C37.7143 19.3029 31.5742 13.3333 24 13.3333Z" fill="#32283C"/>
<path d="M24 13.3333H13.7143C12.7675 13.3333 12 12.5872 12 11.6667C12 10.7461 12.7675 10 13.7143 10H24C24.9468 10 25.7143 10.7461 25.7143 11.6667C25.7143 12.5872 24.9468 13.3333 24 13.3333Z" fill="#FF4646"/>
<path d="M24 10H13.7143C10.8739 10 8.57141 7.76146 8.57141 5V1.66667C8.57141 0.746146 9.33888 0 10.2857 0H11.2899C11.7446 0 12.1806 0.175625 12.5022 0.488125L14.2164 2.15479C14.8859 2.80562 15.9713 2.80562 16.6408 2.15479L17.645 1.17844C18.3144 0.527604 19.3999 0.527604 20.0693 1.17844L21.0736 2.15479C21.743 2.80562 22.8285 2.80562 23.4979 2.15479L25.2122 0.488125C25.5337 0.175521 25.9697 0 26.4244 0H27.4286C28.3754 0 29.1428 0.746146 29.1428 1.66667V5C29.1428 7.76146 26.8403 10 24 10Z" fill="#463C4B"/>
<path d="M27.4286 0H26.4243C25.9697 0 25.5337 0.175625 25.2122 0.488125L23.4979 2.15479C22.8284 2.80573 21.7431 2.80562 21.0735 2.15479L20.0694 1.17844C19.7347 0.853021 19.2959 0.690312 18.8572 0.690312V6.66667C18.8572 8.5076 17.3221 10 15.4286 10H24C26.8404 10 29.1429 7.76146 29.1429 5V1.66667C29.1429 0.746146 28.3754 0 27.4286 0Z" fill="#32283C"/>
<path d="M18.8571 40C24.5378 40 29.1428 35.5228 29.1428 30C29.1428 24.4772 24.5378 20 18.8571 20C13.1765 20 8.57141 24.4772 8.57141 30C8.57141 35.5228 13.1765 40 18.8571 40Z" fill="#32283C"/>
<path d="M22.2857 28.3334C22.7591 28.3334 23.1428 27.9602 23.1428 27.5V27.3398C23.1428 25.5901 21.6787 24.1667 19.8791 24.1667H19.7143V22.5C19.7143 22.0398 19.3305 21.6667 18.8571 21.6667C18.3838 21.6667 18 22.0398 18 22.5V24.1667H17.8352C16.0355 24.1667 14.5714 25.5901 14.5714 27.3398C14.5714 28.7986 15.588 30.0645 17.0436 30.4183L20.2549 31.1988C20.946 31.3667 21.4286 31.9677 21.4286 32.6602C21.4286 33.4909 20.7334 34.1667 19.8791 34.1667H17.8352C16.9808 34.1667 16.2857 33.4909 16.2857 32.6602V32.5C16.2857 32.0398 15.9019 31.6667 15.4286 31.6667C14.9552 31.6667 14.5714 32.0398 14.5714 32.5V32.6602C14.5714 34.4099 16.0355 35.8334 17.8352 35.8334H18V37.5C18 37.9602 18.3838 38.3334 18.8571 38.3334C19.3305 38.3334 19.7143 37.9602 19.7143 37.5V35.8334H19.8791C21.6787 35.8334 23.1428 34.4099 23.1428 32.6602C23.1428 31.2015 22.1263 29.9355 20.6706 29.5818L17.4593 28.8013C16.7683 28.6334 16.2857 28.0323 16.2857 27.3398C16.2857 26.5092 16.9808 25.8334 17.8352 25.8334H19.8791C20.7334 25.8334 21.4286 26.5092 21.4286 27.3398V27.5C21.4286 27.9602 21.8123 28.3334 22.2857 28.3334Z" fill="#E6E6EB"/>
<path d="M45.4286 41.6666H28.2857C27.8124 41.6666 27.4286 42.0398 27.4286 42.5V44.1666C27.4286 44.6268 27.8124 45 28.2857 45H45.4286C45.9019 45 46.2857 44.6268 46.2857 44.1666V42.5C46.2857 42.0398 45.9019 41.6666 45.4286 41.6666Z" fill="#F5732D"/>
<path d="M45.4286 28.3334H28.2857C27.8124 28.3334 27.4286 28.7065 27.4286 29.1667V30.8334C27.4286 31.2936 27.8124 31.6667 28.2857 31.6667H45.4286C45.9019 31.6667 46.2857 31.2936 46.2857 30.8334V29.1667C46.2857 28.7065 45.9019 28.3334 45.4286 28.3334Z" fill="#F5732D"/>
<path d="M43.7142 35H26.5714C26.098 35 25.7142 35.3731 25.7142 35.8333V37.5C25.7142 37.9602 26.098 38.3333 26.5714 38.3333H43.7142C44.1876 38.3333 44.5714 37.9602 44.5714 37.5V35.8333C44.5714 35.3731 44.1876 35 43.7142 35Z" fill="#F5732D"/>
<path d="M47.1428 38.3333H30C29.5266 38.3333 29.1428 38.7064 29.1428 39.1666V40.8333C29.1428 41.2935 29.5266 41.6666 30 41.6666H47.1428C47.6162 41.6666 48 41.2935 48 40.8333V39.1666C48 38.7064 47.6162 38.3333 47.1428 38.3333Z" fill="#FAA037"/>
<path d="M47.1428 31.6667H30C29.5266 31.6667 29.1428 32.0398 29.1428 32.5V34.1667C29.1428 34.6269 29.5266 35 30 35H47.1428C47.6162 35 48 34.6269 48 34.1667V32.5C48 32.0398 47.6162 31.6667 47.1428 31.6667Z" fill="#FAA037"/>
<path d="M42.8572 21.6666H44.5715V19.1666C44.5715 18.7064 44.1877 18.3333 43.7143 18.3333C43.241 18.3333 42.8572 18.7064 42.8572 19.1666V21.6666Z" fill="#FAA037"/>
<path d="M43.7143 26.6666C44.1877 26.6666 44.5715 26.2935 44.5715 25.8333V23.3333H42.8572V25.8333C42.8572 26.2935 43.241 26.6666 43.7143 26.6666Z" fill="#FAA037"/>
<path d="M42.8572 23.3334V21.6667H40.2857C39.8124 21.6667 39.4286 22.0398 39.4286 22.5C39.4286 22.9602 39.8124 23.3334 40.2857 23.3334H42.8572Z" fill="#FAA037"/>
<path d="M48 22.5C48 22.0398 47.6162 21.6667 47.1428 21.6667H44.5714V23.3334H47.1428C47.6162 23.3334 48 22.9602 48 22.5Z" fill="#FAA037"/>
<path d="M38.5714 10H40.2857V7.50002C40.2857 7.03981 39.9019 6.66669 39.4286 6.66669C38.9552 6.66669 38.5714 7.03981 38.5714 7.50002V10Z" fill="#FAA037"/>
<path d="M39.4286 15C39.9019 15 40.2857 14.6268 40.2857 14.1666V11.6666H38.5714V14.1666C38.5714 14.6268 38.9552 15 39.4286 15Z" fill="#FAA037"/>
<path d="M38.5714 11.6667V10H36C35.5266 10 35.1428 10.3731 35.1428 10.8333C35.1428 11.2935 35.5266 11.6667 36 11.6667H38.5714Z" fill="#FAA037"/>
<path d="M43.7143 10.8333C43.7143 10.3731 43.3306 10 42.8572 10H40.2858V11.6667H42.8572C43.3306 11.6667 43.7143 11.2935 43.7143 10.8333Z" fill="#FAA037"/>
<path d="M30.8572 20H32.5715V17.5C32.5715 17.0398 32.1877 16.6666 31.7143 16.6666C31.241 16.6666 30.8572 17.0398 30.8572 17.5V20Z" fill="#FAA037"/>
<path d="M31.7143 25C32.1877 25 32.5715 24.6269 32.5715 24.1667V21.6667H30.8572V24.1667C30.8572 24.6269 31.241 25 31.7143 25Z" fill="#FAA037"/>
<path d="M30.8572 21.6667V20H28.2857C27.8124 20 27.4286 20.3731 27.4286 20.8333C27.4286 21.2935 27.8124 21.6667 28.2857 21.6667H30.8572Z" fill="#FAA037"/>
<path d="M36 20.8333C36 20.3731 35.6162 20 35.1428 20H32.5714V21.6667H35.1428C35.6162 21.6667 36 21.2935 36 20.8333Z" fill="#FAA037"/>
</svg>
