<svg width="38" height="45" viewBox="0 0 38 45" fill="none" xmlns="http://www.w3.org/2000/svg">
<path d="M15.61 30.2182C14.9389 31.0193 14.5492 32.0819 14.5376 33.1434L14.5171 35.0046C14.5067 35.9373 14.7891 36.7975 15.3093 37.4186L18.3835 41.0877L18.5775 41.3193C18.8348 41.6264 19.2798 41.5932 19.5716 41.2449L20.92 39.6356C21.0461 39.485 21.1439 39.3048 21.2052 39.11L21.9045 36.8852L15.9644 29.7954L15.61 30.2182Z" fill="#F9A7A7"/>
<path d="M19.0158 41.9088C18.761 41.9088 18.5275 41.7962 18.3526 41.5875L15.0844 37.6868C14.5019 36.9916 14.1875 36.0373 14.199 34.9997L14.2195 33.1385C14.2323 31.9808 14.657 30.8188 15.3851 29.95L15.7393 29.5272C15.8633 29.379 16.0648 29.379 16.1888 29.5272L22.1289 36.6169C22.2171 36.7222 22.2455 36.8791 22.2016 37.0183L21.5024 39.2432C21.4259 39.4869 21.3021 39.7153 21.1445 39.9037L19.7959 41.5132C19.6001 41.7468 19.3462 41.8866 19.0811 41.9064C19.0593 41.9081 19.0374 41.9088 19.0158 41.9088ZM15.9642 30.3318L15.8347 30.4864C15.2228 31.2167 14.8658 32.1868 14.8553 33.1483L14.8348 35.0095C14.8256 35.8407 15.0739 36.601 15.534 37.1502L18.8022 41.0509C18.8818 41.1461 18.9867 41.1535 19.0417 41.1491C19.1521 41.1408 19.2604 41.0797 19.3467 40.9767L20.695 39.3674C20.7888 39.2551 20.8624 39.1201 20.9072 38.9768L21.5346 36.9806L15.9642 30.3318ZM15.6098 30.2182H15.6114H15.6098Z" fill="#3762CC"/>
<path d="M29.3074 17.3514L27.748 17.3759C26.8587 17.3899 25.9685 17.8548 25.2973 18.6559L24.9429 19.0789L30.883 26.1686L32.7471 25.334C32.9103 25.261 33.0613 25.1443 33.1875 24.9935L34.5358 23.3842C34.8275 23.0361 34.8554 22.5048 34.5981 22.1977L34.4041 21.9661L31.3299 18.297C30.8098 17.6761 30.0889 17.3393 29.3074 17.3514Z" fill="#F9A7A7"/>
<path d="M30.8832 26.5482C30.8004 26.5482 30.719 26.5095 30.6583 26.4371L24.7182 19.3473C24.6586 19.2762 24.6251 19.1796 24.6251 19.0791C24.6251 18.9786 24.6586 18.882 24.7182 18.8109L25.0726 18.3881C25.8005 17.5191 26.7742 17.0121 27.7439 16.9969L29.3033 16.9722C30.1772 16.9609 30.9722 17.3338 31.5546 18.029L34.8228 21.9295C35.0128 22.156 35.1076 22.465 35.0902 22.7994C35.0736 23.1158 34.9565 23.419 34.7607 23.6525L33.4124 25.2618C33.255 25.4496 33.0637 25.5975 32.859 25.6891L30.9949 26.5238C30.9584 26.5403 30.9205 26.5482 30.8832 26.5482ZM25.3925 19.0791L30.9631 25.7278L32.6355 24.9791C32.7558 24.9251 32.8691 24.8374 32.9629 24.7255L34.3113 23.1162C34.3976 23.0132 34.4489 22.8838 34.4557 22.7522C34.4592 22.6862 34.453 22.5612 34.3734 22.4662L31.1052 18.5656C30.6451 18.0165 30.0068 17.7198 29.3117 17.7312L27.7523 17.7558C26.9468 17.7684 26.1339 18.1946 25.5221 18.9247L25.3925 19.0791Z" fill="#3762CC"/>
<path d="M18.2292 8.72023C16.852 7.13122 14.988 5.63307 13.5562 4.58581C12.8963 4.06948 12.211 3.59962 11.5043 3.17529C11.4424 3.13584 11.4078 3.11421 11.4078 3.11421L11.4132 3.12161C9.02563 1.70541 6.39092 0.815773 3.61746 0.510946L2.19219 0.384804C1.71239 0.342504 1.2151 0.574681 0.848139 1.01267C0.481174 1.45066 0.286487 2.04419 0.322087 2.61685L0.427774 4.31797C0.683172 7.62877 1.42886 10.774 2.61574 13.6238L2.60906 13.6159C4.33184 18.2105 7.30571 21.7578 7.30571 21.7578L7.30587 21.7576C9.15849 24.2668 12.3086 27.8398 17.6607 32.8215L21.9042 36.8852L26.4039 31.5146L30.9037 26.144L27.499 21.0791C23.325 14.6912 20.3315 10.9314 18.2292 8.72023Z" fill="#4671C6"/>
<path d="M11.3008 19.6589C14.1446 19.6589 16.45 16.9073 16.45 13.5131C16.45 10.1188 14.1446 7.36719 11.3008 7.36719C8.4569 7.36719 6.15149 10.1188 6.15149 13.5131C6.15149 16.9073 8.4569 19.6589 11.3008 19.6589Z" fill="#A4C9FF"/>
<path d="M11.3008 17.6103C13.1967 17.6103 14.7337 15.7759 14.7337 13.513C14.7337 11.2502 13.1967 9.41577 11.3008 9.41577C9.40492 9.41577 7.86798 11.2502 7.86798 13.513C7.86798 15.7759 9.40492 17.6103 11.3008 17.6103Z" fill="#E0EBFC"/>
<path d="M29.4839 43.183C30.6846 44.0903 32.2537 44.4976 32.7981 44.618C32.8936 44.6391 32.9769 44.5383 32.9589 44.4243C32.6439 42.4229 32.132 41.6154 31.8308 41.3015C31.7789 41.2473 31.8176 41.1458 31.886 41.157C34.5461 41.5972 36.6842 43.162 37.4655 43.8005C37.5723 43.8877 37.7116 43.7671 37.6762 43.6185L37.6551 43.53C37.5247 42.9854 37.4179 41.3688 37.4179 41.3688C36.7245 32.283 32.9185 32.2396 32.9185 32.2396L32.9182 32.2405C31.2991 31.7092 29.4347 32.272 28.1222 33.9018C26.6096 35.7803 26.3101 38.5442 27.2815 40.6181L27.2805 40.6186C27.8902 42.0644 29.4839 43.183 29.4839 43.183Z" fill="#F9A7A7"/>
<path d="M29.0329 39.6033C29.7722 40.161 30.739 40.4102 31.0745 40.4838C31.1333 40.4967 31.1848 40.4345 31.1738 40.3643C30.9814 39.1312 30.6665 38.634 30.4812 38.4407C30.4493 38.4073 30.4733 38.3447 30.5154 38.3516C32.1547 38.6198 33.4711 39.5815 33.9524 39.9742C34.0182 40.0278 34.1041 39.9533 34.0824 39.8619L34.0693 39.8072C33.9894 39.4717 33.925 38.4754 33.925 38.4754C33.5055 32.8759 31.1595 32.8537 31.1595 32.8537L31.1594 32.8542C30.1618 32.5287 29.0121 32.8779 28.2017 33.884C27.2677 35.0438 27.0808 36.7478 27.6777 38.0249L27.6771 38.0253C28.0515 38.9159 29.0329 39.6033 29.0329 39.6033Z" fill="#FFEA92"/>
<path d="M6.07243 0.948365C5.26793 0.752987 4.44993 0.602565 3.61746 0.510946L2.19219 0.384804C1.71239 0.342504 1.2151 0.574681 0.848139 1.01267C0.481174 1.45066 0.286487 2.04419 0.322087 2.61685L0.427774 4.31797C0.504377 5.31155 0.630566 6.28787 0.794262 7.24807L6.07243 0.948365Z" fill="#F9A7A7"/>
<path d="M21.9042 37.2644C21.8341 37.2644 21.7637 37.2367 21.7053 37.1809L17.4618 33.1174C12.8216 28.7984 9.32787 25.0661 7.08126 22.0272C6.9894 21.9285 6.847 21.7413 6.57825 21.3858C6.29599 21.0123 5.85417 20.407 5.35323 19.6436C4.46737 18.2937 3.22201 16.1791 2.31898 13.7708C2.31469 13.7591 2.31087 13.7475 2.30753 13.7357C1.10667 10.8345 0.367816 7.67789 0.111306 4.35268L0.00514242 2.64492C-0.0376092 1.95712 0.187751 1.26438 0.623373 0.744255C1.05884 0.224322 1.63861 -0.0457926 2.21583 0.00637139L3.6411 0.132513C6.43283 0.439048 9.07771 1.32109 11.5085 2.75437C11.5241 2.76044 11.5395 2.76822 11.5544 2.77751L11.6539 2.8403C12.3677 3.26861 13.0687 3.75042 13.7303 4.26808C15.0928 5.26469 17.0246 6.80344 18.4464 8.4429C20.9943 11.1241 24.1241 15.2969 27.7495 20.8456L31.1514 25.9063C31.2528 26.0573 31.2429 26.275 31.1282 26.412L22.1289 37.153C22.0672 37.227 21.9859 37.2644 21.9042 37.2644ZM2.92163 13.5203C4.60436 17.9705 7.50131 21.4543 7.53055 21.4892C7.53532 21.4949 7.53992 21.5008 7.54437 21.5069C9.76476 24.5142 13.2342 28.2203 17.8563 32.5224L21.8811 36.3763L30.4775 26.1161L27.2511 21.3164C23.6438 15.7956 20.5387 11.6545 18.0192 9.00476C18.0155 9.00077 18.0119 8.99679 18.0084 8.99281C16.6279 7.4 14.7351 5.89294 13.3902 4.90922C12.7405 4.40105 12.0608 3.93385 11.3617 3.51426L11.3037 3.47765C11.293 3.4731 11.2824 3.46741 11.2719 3.46134C8.89892 2.05367 6.31395 1.18831 3.58865 0.888607L2.16895 0.763034C1.78244 0.728321 1.37335 0.922371 1.07314 1.28069C0.772765 1.6392 0.610659 2.12821 0.639266 2.58877L0.745112 4.2897C0.995582 7.53639 1.72093 10.6222 2.90065 13.4548C2.90924 13.4763 2.91623 13.4983 2.92163 13.5203Z" fill="#3762CC"/>
<path d="M20.9228 24.3211C20.7748 24.2342 20.5841 24.2814 20.4536 24.4373C20.323 24.5933 20.2834 24.8209 20.3562 24.9973L21.1742 26.9801C21.5698 27.9388 22.0885 28.8051 22.7142 29.5521L25.5752 32.9668C25.8325 33.2739 26.2775 33.2407 26.5693 32.8925L27.0534 32.3147L27.5375 31.7369C27.8292 31.3888 27.8571 30.8575 27.5998 30.5504L24.7388 27.1357C24.1131 26.3889 23.3871 25.7695 22.5839 25.2976L20.9228 24.3211Z" fill="#F9A7A7"/>
<path d="M26.0152 33.5553C25.7691 33.5553 25.5303 33.4494 25.3507 33.2351L22.4897 29.8203C21.8387 29.0434 21.3004 28.1442 20.8891 27.1478L20.0711 25.165C19.9376 24.8414 20.001 24.4412 20.2288 24.169C20.4571 23.8971 20.7923 23.8218 21.0631 23.9806C21.0631 23.9808 21.0631 23.9808 21.0631 23.9808L22.7244 24.9571C23.5593 25.4477 24.3126 26.0905 24.9635 26.8673L27.8246 30.282C28.2054 30.7365 28.1774 31.5097 27.7623 32.0049L26.7941 33.1607C26.5749 33.4225 26.2908 33.5553 26.0152 33.5553ZM20.7639 24.6572C20.7408 24.6572 20.7073 24.6709 20.6782 24.7056C20.6397 24.7515 20.6321 24.8071 20.6413 24.8297L21.4593 26.8125C21.8397 27.7341 22.3374 28.5657 22.939 29.2837L25.8 32.6984C25.933 32.8572 26.1774 32.8238 26.3446 32.6241L27.3128 31.4683C27.4773 31.272 27.5058 30.9744 27.3751 30.8183L24.5141 27.4035C23.9124 26.6856 23.216 26.0913 22.4436 25.6373L20.7823 24.6612C20.7779 24.6587 20.7713 24.6572 20.7639 24.6572Z" fill="#3762CC"/>
<path d="M32.823 45C32.7955 45 32.7677 44.997 32.7401 44.9909C32.1218 44.8539 30.5529 44.4361 29.322 43.5091C29.2418 43.4525 27.6386 42.311 26.9966 40.7889C26.9945 40.7842 26.9926 40.7791 26.9907 40.7741C25.9507 38.522 26.3197 35.5926 27.8931 33.6387C29.2352 31.9719 31.1743 31.2932 32.9632 31.8619C33.4192 31.8917 37.0537 32.412 37.7346 41.3343C37.764 41.7782 37.8611 43.009 37.9607 43.4254L37.982 43.5142C38.0354 43.7376 37.9679 43.9698 37.8099 44.1056C37.6522 44.2416 37.4466 44.2443 37.2861 44.1132C36.5766 43.5335 34.7725 42.2122 32.4893 41.6638C32.7738 42.2044 33.0654 43.0455 33.2714 44.3541C33.2992 44.5311 33.2521 44.7126 33.1457 44.8403C33.0592 44.9433 32.9429 45 32.823 45ZM32.8559 44.2449H32.8575H32.8559ZM27.5757 40.4746C28.1456 41.7928 29.6302 42.8453 29.6451 42.856C29.6481 42.858 29.6512 42.8601 29.654 42.8624C30.6561 43.6195 31.9553 44.0197 32.5942 44.1824C32.293 42.5001 31.8609 41.8366 31.6217 41.587C31.4917 41.4511 31.4526 41.2343 31.5241 41.0469C31.5956 40.8597 31.7576 40.7533 31.9295 40.781C34.3047 41.1742 36.2705 42.4381 37.2718 43.1944C37.1766 42.5157 37.11 41.5337 37.1011 41.3986C36.466 33.078 33.1563 32.6394 32.9255 32.6197C32.8963 32.6227 32.8645 32.6163 32.8338 32.6064C31.2589 32.0889 29.5415 32.6868 28.3511 34.1647C26.9632 35.8884 26.6374 38.466 27.5587 40.4331C27.5652 40.4464 27.5708 40.4604 27.5757 40.4746Z" fill="#C4C4C4"/>
</svg>
