<svg width="48" height="40" viewBox="0 0 48 40" fill="none" xmlns="http://www.w3.org/2000/svg">
<path d="M44.5559 0.0236818C43.7583 -0.0546564 42.8914 0.0606978 42.0204 0.379606C40.9406 0.772962 24.0208 7.36481 8.24848 13.5141L3.03694 15.5454C1.01891 16.3033 0 17.5357 0 19.1958C0 20.3581 0.531127 21.9346 3.06506 22.8636L11.8619 26.1277C12.6225 28.2411 14.3893 33.1483 14.8332 34.4528C15.0972 35.2262 15.7639 37.1745 17.4484 37.6301C17.7939 37.739 18.1545 37.795 18.5216 37.795C19.5846 37.795 20.35 37.3368 20.7243 37.0701L26.3155 32.6905L33.1064 38.5069C33.368 38.7535 34.7524 40 36.612 40C38.9324 40 40.6925 38.211 41.0596 36.4798C41.2588 35.5309 47.8084 5.0803 47.8084 5.08474C48.3963 2.64238 47.3392 1.37539 46.6602 0.835362C46.0783 0.374223 45.3534 0.10202 44.5559 0.0236818ZM42.9671 4.82431C42.0625 9.02456 37.131 31.9512 36.3824 35.2558L26.4561 26.7527L19.7214 32.0351L21.5867 25.2769C21.5867 25.2769 34.4544 13.2137 35.2295 12.5114C35.8533 11.9491 35.984 11.752 35.984 11.5565C35.984 11.2965 35.8395 11.1094 35.506 11.1094C35.206 11.1094 34.7987 11.3756 34.5827 11.5001C31.8392 13.0842 20.1567 19.2482 14.4067 22.2776L6.06451 19.1915L10.1138 17.6159C20.4295 13.5934 38.8015 6.42885 42.9671 4.82431Z" fill="black"/>
</svg>
