<?xml version="1.0" standalone="no"?>
<!DOCTYPE svg PUBLIC "-//W3C//DTD SVG 20010904//EN"
 "http://www.w3.org/TR/2001/REC-SVG-20010904/DTD/svg10.dtd">
<svg version="1.0" xmlns="http://www.w3.org/2000/svg"
 width="251.000000pt" height="251.000000pt" viewBox="0 0 251.000000 251.000000"
 preserveAspectRatio="xMidYMid meet">
<metadata>
Created by potrace 1.14, written by Peter Selinger 2001-2017
</metadata>
<g transform="translate(0.000000,251.000000) scale(0.100000,-0.100000)"
fill="#000000" stroke="none">
<path d="M1095 2215 c-72 -41 -137 -79 -145 -84 -22 -14 -332 -194 -355 -207
-158 -84 -247 -182 -296 -326 -19 -54 -22 -89 -25 -245 -1 -101 0 -183 3 -183
4 0 141 77 275 155 98 57 246 143 267 155 238 139 294 185 349 287 53 100 63
154 64 342 1 94 0 172 -3 175 -2 3 -63 -29 -134 -69z"/>
<path d="M1652 1828 c4 -183 6 -196 33 -263 36 -90 72 -141 139 -202 50 -44
92 -70 274 -170 l62 -35 -1 178 c-2 182 -9 232 -47 315 -25 55 -83 133 -126
171 -35 31 -312 198 -328 198 -7 0 -9 -63 -6 -192z"/>
<path d="M381 1139 c-44 -9 -79 -37 -103 -79 -16 -29 -19 -49 -14 -116 8 -139
61 -252 161 -341 42 -38 546 -343 720 -435 l32 -17 -2 182 c-2 194 -7 221 -57
326 -50 102 -116 165 -273 256 -75 44 -151 89 -168 101 -18 11 -57 33 -87 49
-30 16 -62 35 -72 43 -27 22 -100 39 -137 31z"/>
<path d="M1959 1135 c-19 -6 -96 -48 -173 -93 -76 -45 -140 -82 -143 -82 -2 0
-35 -19 -71 -43 -37 -23 -79 -48 -93 -55 -38 -20 -111 -91 -145 -142 -70 -104
-93 -192 -90 -354 0 -64 -3 -116 -7 -116 -5 0 -6 -4 -3 -8 3 -5 6 -27 7 -50
l3 -41 55 31 c31 18 96 56 145 85 49 29 90 53 92 53 2 0 55 32 119 70 64 39
118 70 120 70 12 0 196 118 224 144 91 85 151 215 156 341 3 68 1 86 -18 120
-37 65 -111 94 -178 70z"/>
</g>
</svg>
